<svg width="29" height="29" viewBox="0 0 29 29" fill="none" xmlns="http://www.w3.org/2000/svg">
<path d="M14.1458 23.7649C8.82701 23.7649 4.52667 19.4646 4.52667 14.1458C4.52667 8.82695 8.82701 4.52661 14.1458 4.52661C19.4647 4.52661 23.765 8.82695 23.765 14.1458C23.765 19.4646 19.4647 23.7649 14.1458 23.7649ZM14.1458 5.65828C9.44942 5.65828 5.65834 9.44936 5.65834 14.1458C5.65834 18.8422 9.44942 22.6333 14.1458 22.6333C18.8423 22.6333 22.6333 18.8422 22.6333 14.1458C22.6333 9.44936 18.8423 5.65828 14.1458 5.65828Z" fill="white"/>
<path d="M13.9761 19.6344L13.1839 18.8422L17.8803 14.1458L13.1839 9.44939L13.9761 8.65723L19.4647 14.1458L13.9761 19.6344Z" fill="white"/>
<path d="M9.05334 13.5801H18.6725V14.7117H9.05334V13.5801Z" fill="white"/>
</svg>
